# xmcd
#
# Track frame offsets:
#	150
#	19265
#	40979
#	61883
#	74958
#	94468
#	112158
#	133303
#	152957
#	176910
#
# Disc length: 2628 seconds
#
# Revision: 1
# Processed by: cddbd v1.5.2PL0 Copyright (c) Steve Scherf et al.
# Submitted via: audiograbber 1.83.01
#
DISCID=a20a420a
DTITLE=Treasa Levasseur - Not A Straight Line
DYEAR=2006
DGENRE=Blues
TTITLE0=Brother Lover
TTITLE1=Not A Straight Line
TTITLE2=Asking Me To Give You The Blues
TTITLE3=Learn To Let Go
TTITLE4=Solitary man
TTITLE5=If I Sang It Pretty
TTITLE6=One
TTITLE7=Nickels And Dimes
TTITLE8=Worthy In Its Ways
TTITLE9=Singing Emma
EXTD=
EXTT0=
EXTT1=
EXTT2=
EXTT3=
EXTT4=
EXTT5=
EXTT6=
EXTT7=
EXTT8=
EXTT9=
PLAYORDER=
